<svg width="773" height="734" viewBox="0 0 773 734" fill="none" xmlns="http://www.w3.org/2000/svg">
<path d="M762.731 168.795C745.382 159.052 703.684 152.309 675.688 203.286C647.692 254.263 609.395 244.731 593.746 233.593C569.765 226.292 521.058 223.138 518.075 268.928C514.346 326.166 595.355 182.352 471.371 240.52C372.185 287.053 411.675 311.884 443.818 318.483C458.745 308.132 463.906 293.298 365.142 316.773" stroke="black"/>
<path d="M365.414 317.025C337.641 321.287 288.046 343.12 311.854 396.356C335.662 449.592 291.818 453.926 266.92 449.439C234.535 451.459 179.86 469.323 220.242 524.615C233.636 540.374 246.704 572.181 191.818 573.339C136.933 574.497 124.21 605.512 124.709 620.874C137.324 641.662 164.317 675.581 171.366 644.954C178.414 614.327 103.643 623.658 65.3764 632.152" stroke="black"/>
</svg>
